<mxfile host="app.diagrams.net" modified="2024-05-21T12:32:07.045Z" agent="Mozilla/5.0 (Windows NT 10.0; Win64; x64) AppleWebKit/537.36 (KHTML, like Gecko) Chrome/124.0.0.0 Safari/537.36" version="24.4.4" etag="2VFwo8RJ3pxHuZeesMKZ" type="github">
  <diagram name="Страница — 1" id="SnpIPSNj4DhnbsyZ_Omc">
    <mxGraphModel>
      <root>
        <mxCell id="0" />
        <mxCell id="1" parent="0" />
      </root>
    </mxGraphModel>
  </diagram>
</mxfile>
